<svg width="312" height="75" viewBox="0 0 312 75" fill="none" xmlns="http://www.w3.org/2000/svg">
<path d="M199.068 14.0649H176.659L180.614 19.5714V56.7403L176 62.2468H201.045L205 65V48.4805L199.068 53.2987H187.205V42.2857H195.773L199.068 46.4156V30.5844L195.773 32.6494H187.205V24.3896C187.864 23.9307 189.973 23.013 193.136 23.013C196.432 23.013 198.409 23.7013 199.068 24.3896L204.341 28.5195V12L199.068 14.0649Z" fill="white" stroke="black" stroke-width="2"/>
<path d="M112.571 15H103.321L106.625 19.0286V56.6286L102 62H118.518L113.893 56.6286V33.8L130.411 62H139L135.036 56.6286V19.0286L139 15H121.821L126.446 19.0286V38.5L112.571 15Z" fill="white" stroke="black" stroke-width="2"/>
<path d="M166.605 62H149.07L153.791 56.6301V23.7397H147.721L143 27.7671V13L147.721 15.0137H167.279L172 13V27.7671L167.279 23.7397H161.884V56.6301L166.605 62Z" fill="white" stroke="black" stroke-width="2"/>
<path fill-rule="evenodd" clip-rule="evenodd" d="M266.31 29.0807L266.31 21.6058L264.595 23.4746L258.212 23.4746L258.212 17.0914L260.081 15.3767L252.606 15.3767L254.475 17.0914L254.475 23.4746L248.091 23.4746L246.377 21.6058L246.377 29.0807L248.091 27.212L254.475 27.212L254.475 33.5951L252.606 35.3098L260.081 35.3098L258.212 33.5951L258.212 27.212L264.595 27.212L266.31 29.0807Z" fill="#FF0000"/>
<path d="M266.31 21.6058L267.06 21.6058L267.06 19.6791L265.757 21.0988L266.31 21.6058ZM266.31 29.0807L265.757 29.5878L267.06 31.0075L267.06 29.0807L266.31 29.0807ZM264.595 23.4746L264.595 24.2246L264.925 24.2246L265.148 23.9816L264.595 23.4746ZM258.212 23.4746L257.462 23.4746L257.462 24.2246L258.212 24.2246L258.212 23.4746ZM258.212 17.0914L257.705 16.5388L257.462 16.7617L257.462 17.0914L258.212 17.0914ZM260.081 15.3767L260.588 15.9293L262.007 14.6267L260.081 14.6267L260.081 15.3767ZM252.606 15.3767L252.606 14.6267L250.679 14.6267L252.099 15.9293L252.606 15.3767ZM254.475 17.0914L255.225 17.0914L255.225 16.7617L254.982 16.5388L254.475 17.0914ZM254.475 23.4746L254.475 24.2246L255.225 24.2246L255.225 23.4746L254.475 23.4746ZM248.091 23.4746L247.539 23.9816L247.762 24.2246L248.091 24.2246L248.091 23.4746ZM246.377 21.6058L246.929 21.0988L245.627 19.6791L245.627 21.6058L246.377 21.6058ZM246.377 29.0807L245.627 29.0807L245.627 31.0074L246.929 29.5878L246.377 29.0807ZM248.091 27.212L248.091 26.462L247.762 26.462L247.539 26.7049L248.091 27.212ZM254.475 27.212L255.225 27.212L255.225 26.462L254.475 26.462L254.475 27.212ZM254.475 33.5951L254.982 34.1478L255.225 33.9248L255.225 33.5951L254.475 33.5951ZM252.606 35.3098L252.099 34.7572L250.679 36.0598L252.606 36.0598L252.606 35.3098ZM260.081 35.3098L260.081 36.0598L262.007 36.0598L260.588 34.7572L260.081 35.3098ZM258.212 33.5951L257.462 33.5951L257.462 33.9248L257.705 34.1478L258.212 33.5951ZM258.212 27.212L258.212 26.462L257.462 26.462L257.462 27.212L258.212 27.212ZM264.595 27.212L265.148 26.7049L264.925 26.462L264.595 26.462L264.595 27.212ZM265.56 21.6058L265.56 29.0807L267.06 29.0807L267.06 21.6058L265.56 21.6058ZM265.148 23.9816L266.862 22.1129L265.757 21.0988L264.043 22.9675L265.148 23.9816ZM258.212 24.2246L264.595 24.2246L264.595 22.7246L258.212 22.7246L258.212 24.2246ZM257.462 17.0914L257.462 23.4746L258.962 23.4746L258.962 17.0914L257.462 17.0914ZM259.574 14.8241L257.705 16.5388L258.719 17.644L260.588 15.9293L259.574 14.8241ZM252.606 16.1267L260.081 16.1267L260.081 14.6267L252.606 14.6267L252.606 16.1267ZM254.982 16.5388L253.113 14.8241L252.099 15.9293L253.967 17.644L254.982 16.5388ZM255.225 23.4746L255.225 17.0914L253.725 17.0914L253.725 23.4746L255.225 23.4746ZM248.091 24.2246L254.475 24.2246L254.475 22.7246L248.091 22.7246L248.091 24.2246ZM245.824 22.1129L247.539 23.9816L248.644 22.9675L246.929 21.0988L245.824 22.1129ZM247.127 29.0807L247.127 21.6058L245.627 21.6058L245.627 29.0807L247.127 29.0807ZM247.539 26.7049L245.824 28.5737L246.929 29.5878L248.644 27.7191L247.539 26.7049ZM254.475 26.462L248.091 26.462L248.091 27.962L254.475 27.962L254.475 26.462ZM255.225 33.5951L255.225 27.212L253.725 27.212L253.725 33.5951L255.225 33.5951ZM253.113 35.8624L254.982 34.1478L253.967 33.0425L252.099 34.7572L253.113 35.8624ZM260.081 34.5598L252.606 34.5598L252.606 36.0598L260.081 36.0598L260.081 34.5598ZM257.705 34.1478L259.574 35.8624L260.588 34.7572L258.719 33.0425L257.705 34.1478ZM257.462 27.212L257.462 33.5951L258.962 33.5951L258.962 27.212L257.462 27.212ZM264.595 26.462L258.212 26.462L258.212 27.962L264.595 27.962L264.595 26.462ZM266.862 28.5737L265.148 26.7049L264.043 27.7191L265.757 29.5878L266.862 28.5737Z" fill="black"/>
<path fill-rule="evenodd" clip-rule="evenodd" d="M60.1648 65.0756L72.7578 43.2638L64.6062 45.828L45.9801 35.0743L56.7339 16.4482L65.0756 14.593L43.2638 2L45.828 10.1517L35.0742 28.7778L16.4482 18.024L14.5931 9.68235L2 31.4941L10.1517 28.9299L28.7777 39.6837L18.024 58.3096L9.68229 60.1648L31.4941 72.7578L28.9299 64.6062L39.6836 45.9802L58.3096 56.7339L60.1648 65.0756Z" fill="#FF0000"/>
<path d="M72.7578 43.2638L73.4074 43.6388L74.3707 41.9702L72.5328 42.5484L72.7578 43.2638ZM60.1648 65.0756L59.4327 65.2384L59.851 67.1192L60.8143 65.4506L60.1648 65.0756ZM64.6062 45.828L64.2312 46.4776L64.5167 46.6424L64.8312 46.5435L64.6062 45.828ZM45.9801 35.0743L45.3306 34.6993L44.9556 35.3488L45.6051 35.7238L45.9801 35.0743ZM56.7339 16.4482L56.5711 15.7161L56.2492 15.7877L56.0844 16.0732L56.7339 16.4482ZM65.0756 14.593L65.2384 15.3252L67.1191 14.9069L65.4506 13.9435L65.0756 14.593ZM43.2638 2L43.6388 1.35048L41.9702 0.387122L42.5483 2.22505L43.2638 2ZM45.828 10.1517L46.4775 10.5267L46.6424 10.2411L46.5434 9.92663L45.828 10.1517ZM35.0742 28.7778L34.6992 29.4273L35.3487 29.8023L35.7237 29.1528L35.0742 28.7778ZM16.4482 18.024L15.7161 18.1868L15.7877 18.5087L16.0732 18.6735L16.4482 18.024ZM14.5931 9.68235L15.3252 9.51953L14.9069 7.63877L13.9435 9.30735L14.5931 9.68235ZM2 31.4941L1.35048 31.1191L0.387127 32.7877L2.22505 32.2096L2 31.4941ZM10.1517 28.9299L10.5267 28.2804L10.2412 28.1156L9.92664 28.2145L10.1517 28.9299ZM28.7777 39.6837L29.4272 40.0587L29.8022 39.4091L29.1527 39.0341L28.7777 39.6837ZM18.024 58.3096L18.1868 59.0417L18.5086 58.9702L18.6735 58.6846L18.024 58.3096ZM9.68229 60.1648L9.51947 59.4327L7.63871 59.851L9.30729 60.8143L9.68229 60.1648ZM31.4941 72.7578L31.1191 73.4074L32.7877 74.3707L32.2095 72.5328L31.4941 72.7578ZM28.9299 64.6062L28.2803 64.2312L28.1155 64.5167L28.2144 64.8312L28.9299 64.6062ZM39.6836 45.9802L40.0586 45.3307L39.4091 44.9557L39.0341 45.6052L39.6836 45.9802ZM58.3096 56.7339L59.0417 56.5711L58.9702 56.2493L58.6846 56.0844L58.3096 56.7339ZM72.1083 42.8888L59.5153 64.7006L60.8143 65.4506L73.4074 43.6388L72.1083 42.8888ZM64.8312 46.5435L72.9829 43.9793L72.5328 42.5484L64.3811 45.1126L64.8312 46.5435ZM45.6051 35.7238L64.2312 46.4776L64.9812 45.1785L46.3551 34.4248L45.6051 35.7238ZM56.0844 16.0732L45.3306 34.6993L46.6296 35.4493L57.3834 16.8232L56.0844 16.0732ZM64.9127 13.8609L56.5711 15.7161L56.8967 17.1803L65.2384 15.3252L64.9127 13.8609ZM42.8888 2.64952L64.7006 15.2426L65.4506 13.9435L43.6388 1.35048L42.8888 2.64952ZM46.5434 9.92663L43.9792 1.77495L42.5483 2.22505L45.1125 10.3767L46.5434 9.92663ZM35.7237 29.1528L46.4775 10.5267L45.1785 9.77668L34.4247 28.4028L35.7237 29.1528ZM16.0732 18.6735L34.6992 29.4273L35.4492 28.1282L16.8232 17.3745L16.0732 18.6735ZM13.8609 9.84517L15.7161 18.1868L17.1803 17.8612L15.3252 9.51953L13.8609 9.84517ZM2.64952 31.8691L15.2426 10.0573L13.9435 9.30735L1.35048 31.1191L2.64952 31.8691ZM9.92664 28.2145L1.77495 30.7787L2.22505 32.2096L10.3767 29.6454L9.92664 28.2145ZM29.1527 39.0341L10.5267 28.2804L9.77669 29.5794L28.4027 40.3332L29.1527 39.0341ZM18.6735 58.6846L29.4272 40.0587L28.1282 39.3087L17.3745 57.9346L18.6735 58.6846ZM9.84511 60.8969L18.1868 59.0417L17.8612 57.5775L9.51947 59.4327L9.84511 60.8969ZM31.8691 72.1083L10.0573 59.5153L9.30729 60.8143L31.1191 73.4074L31.8691 72.1083ZM28.2144 64.8312L30.7786 72.9829L32.2095 72.5328L29.6453 64.3811L28.2144 64.8312ZM39.0341 45.6052L28.2803 64.2312L29.5794 64.9812L40.3331 46.3552L39.0341 45.6052ZM58.6846 56.0844L40.0586 45.3307L39.3086 46.6297L57.9346 57.3835L58.6846 56.0844ZM60.8969 64.9128L59.0417 56.5711L57.5775 56.8968L59.4327 65.2384L60.8969 64.9128Z" fill="black"/>
<path d="M289 63H280L282.25 60.7634V39.2366L280 37H289L286.75 39.2366V60.7634L289 63Z" fill="white" stroke="black" stroke-width="1.5"/>
<path fill-rule="evenodd" clip-rule="evenodd" d="M261.732 63H253L255.729 58.9787L265.006 36L274.556 59.5532L276.739 63H268.007L269.918 60.1277C269.645 58.3085 268.99 54.7277 268.553 54.9574C268.117 55.1872 263.46 55.0532 261.186 54.9574C260.64 56.3936 259.603 59.4383 259.822 60.1277C260.04 60.817 261.186 62.3298 261.732 63ZM262.823 50.9362L265.006 45.4787L267.189 50.9362H262.823Z" fill="white"/>
<path d="M253 63L252.379 62.5789L251.585 63.75H253V63ZM261.732 63V63.75H263.31L262.313 62.5264L261.732 63ZM255.729 58.9787L256.349 59.3998L256.394 59.3337L256.424 59.2595L255.729 58.9787ZM265.006 36L265.701 35.7182L265.005 34.0004L264.311 35.7192L265.006 36ZM274.556 59.5532L273.861 59.835L273.887 59.8975L273.923 59.9545L274.556 59.5532ZM276.739 63V63.75H278.102L277.373 62.5987L276.739 63ZM268.007 63L267.383 62.5847L266.608 63.75H268.007V63ZM269.918 60.1277L270.542 60.543L270.702 60.3023L270.659 60.0164L269.918 60.1277ZM268.553 54.9574L268.903 55.6211L268.903 55.6211L268.553 54.9574ZM261.186 54.9574L261.217 54.2081L260.677 54.1854L260.485 54.691L261.186 54.9574ZM259.822 60.1277L259.107 60.3541L259.107 60.3541L259.822 60.1277ZM265.006 45.4787L265.702 45.2002L265.006 43.4592L264.31 45.2002L265.006 45.4787ZM262.823 50.9362L262.127 50.6576L261.715 51.6862H262.823V50.9362ZM267.189 50.9362V51.6862H268.297L267.885 50.6576L267.189 50.9362ZM253 63.75H261.732V62.25H253V63.75ZM255.108 58.5576L252.379 62.5789L253.621 63.4211L256.349 59.3998L255.108 58.5576ZM264.311 35.7192L255.033 58.6979L256.424 59.2595L265.701 36.2808L264.311 35.7192ZM275.251 59.2714L265.701 35.7182L264.311 36.2818L273.861 59.835L275.251 59.2714ZM277.373 62.5987L275.19 59.1519L273.923 59.9545L276.106 63.4013L277.373 62.5987ZM268.007 63.75H276.739V62.25H268.007V63.75ZM269.293 59.7124L267.383 62.5847L268.632 63.4153L270.542 60.543L269.293 59.7124ZM268.903 55.6211C268.697 55.7293 268.472 55.7113 268.309 55.6319C268.185 55.5717 268.129 55.4935 268.128 55.492C268.122 55.4835 268.154 55.5295 268.212 55.6807C268.319 55.9618 268.441 56.4029 268.566 56.9428C268.812 58.0104 269.041 59.3393 269.176 60.2389L270.659 60.0164C270.521 59.0969 270.286 57.7258 270.028 56.6056C269.9 56.0516 269.759 55.5269 269.613 55.1443C269.543 54.9638 269.451 54.7535 269.324 54.5861C269.262 54.5051 269.147 54.3717 268.966 54.2834C268.745 54.1759 268.464 54.1569 268.204 54.2938L268.903 55.6211ZM261.154 55.7068C262.296 55.7549 264.037 55.8126 265.55 55.8295C266.306 55.8379 267.013 55.8362 267.563 55.8174C267.837 55.808 268.084 55.7941 268.283 55.7733C268.381 55.763 268.48 55.7498 268.569 55.7321C268.641 55.7178 268.774 55.6885 268.903 55.6211L268.204 54.2938C268.277 54.2551 268.323 54.2517 268.278 54.2607C268.25 54.2662 268.201 54.2736 268.127 54.2814C267.978 54.2969 267.772 54.3094 267.512 54.3183C266.995 54.336 266.315 54.3379 265.567 54.3296C264.074 54.3129 262.35 54.2558 261.217 54.2081L261.154 55.7068ZM260.537 59.9013C260.551 59.947 260.537 59.9339 260.544 59.8085C260.55 59.6998 260.569 59.5527 260.603 59.3676C260.672 58.9985 260.79 58.5358 260.937 58.033C261.23 57.0304 261.619 55.9296 261.887 55.2239L260.485 54.691C260.207 55.4214 259.805 56.561 259.497 57.6122C259.344 58.1363 259.21 58.6537 259.128 59.0943C259.088 59.314 259.057 59.5291 259.046 59.7245C259.036 59.9031 259.038 60.1359 259.107 60.3541L260.537 59.9013ZM262.313 62.5264C262.05 62.2027 261.638 61.672 261.269 61.1422C260.877 60.5795 260.606 60.1198 260.537 59.9013L259.107 60.3541C259.256 60.8249 259.667 61.4662 260.039 61.9998C260.433 62.5663 260.868 63.1271 261.15 63.4736L262.313 62.5264ZM264.31 45.2002L262.127 50.6576L263.519 51.2147L265.702 45.7573L264.31 45.2002ZM267.885 50.6576L265.702 45.2002L264.31 45.7573L266.493 51.2147L267.885 50.6576ZM262.823 51.6862H267.189V50.1862H262.823V51.6862Z" fill="black"/>
<path fill-rule="evenodd" clip-rule="evenodd" d="M294 37H304.511C306.447 38.0035 310.374 41.5979 310.596 47.9474C310.872 55.8842 309.213 59.9895 305.617 63H294L296.489 59.9895V40.0105L294 37ZM300.085 41.3789C302.113 41.4702 306.336 43.1305 307 49.0421C307.83 56.4316 305.064 59.0966 303.681 58.8947C302.333 58.6981 301.602 58.1392 300.197 57.0648C300.16 57.0365 300.123 57.0079 300.085 56.9789V41.3789Z" fill="white"/>
<path d="M304.511 37L304.856 36.3341L304.693 36.25H304.511V37ZM294 37V36.25H292.407L293.422 37.4779L294 37ZM310.596 47.9474L311.345 47.9212L311.345 47.9212L310.596 47.9474ZM305.617 63V63.75H305.89L306.098 63.5751L305.617 63ZM294 63L293.422 62.5221L292.407 63.75H294V63ZM296.489 59.9895L297.067 60.4674L297.239 60.2594V59.9895H296.489ZM296.489 40.0105H297.239V39.7406L297.067 39.5326L296.489 40.0105ZM307 49.0421L307.745 48.9584L307.745 48.9584L307 49.0421ZM300.085 41.3789L300.119 40.6297L299.335 40.5945V41.3789H300.085ZM303.681 58.8947L303.573 59.6369L303.573 59.6369L303.681 58.8947ZM300.197 57.0648L299.742 57.6606L299.742 57.6606L300.197 57.0648ZM300.085 56.9789H299.335V57.3497L299.63 57.5748L300.085 56.9789ZM304.511 36.25H294V37.75H304.511V36.25ZM311.345 47.9212C311.113 41.2572 306.991 37.4406 304.856 36.3341L304.166 37.6659C305.903 38.5664 309.636 41.9386 309.846 47.9735L311.345 47.9212ZM306.098 63.5751C307.992 61.9895 309.389 60.0995 310.267 57.5666C311.139 55.0517 311.485 51.9392 311.345 47.9212L309.846 47.9735C309.983 51.8924 309.638 54.8009 308.85 57.0755C308.068 59.332 306.838 61 305.136 62.4249L306.098 63.5751ZM294 63.75H305.617V62.25H294V63.75ZM295.911 59.5115L293.422 62.5221L294.578 63.4779L297.067 60.4674L295.911 59.5115ZM295.739 40.0105V59.9895H297.239V40.0105H295.739ZM293.422 37.4779L295.911 40.4885L297.067 39.5326L294.578 36.5221L293.422 37.4779ZM307.745 48.9584C307.033 42.6106 302.441 40.7342 300.119 40.6297L300.051 42.1282C301.786 42.2062 305.64 43.6504 306.255 49.1258L307.745 48.9584ZM303.573 59.6369C304.182 59.7258 304.813 59.4894 305.355 59.0754C305.907 58.6534 306.425 58.0074 306.845 57.1431C307.686 55.4131 308.171 52.7462 307.745 48.9584L306.255 49.1258C306.659 52.7275 306.176 55.0878 305.496 56.4873C305.155 57.1876 304.774 57.6319 304.444 57.8837C304.104 58.1435 303.871 58.1646 303.789 58.1526L303.573 59.6369ZM299.742 57.6606C301.131 58.723 302.006 59.4083 303.573 59.6369L303.789 58.1526C302.66 57.9879 302.074 57.5555 300.653 56.469L299.742 57.6606ZM299.63 57.5748C299.668 57.6037 299.705 57.6323 299.742 57.6606L300.653 56.469C300.616 56.4408 300.579 56.4121 300.541 56.3831L299.63 57.5748ZM299.335 41.3789V56.9789H300.835V41.3789H299.335Z" fill="black"/>
<path d="M35.8933 61.6841H18.2504L23.0004 56.3127V19.3841L18.2504 14.6841H35.8933L30.4647 19.3841V32.1413H43.3576V19.3841L38.6076 14.6841H56.2504L50.8219 19.3841L51.5004 56.3127L56.2504 61.6841H38.6076L43.3576 56.3127V41.5413H30.4647V56.3127L35.8933 61.6841Z" fill="white" stroke="black" stroke-width="2"/>
<path d="M79.4909 15L74.1091 19.7V45.2143C74.1091 45.8857 75.4545 52.6 80.8364 52.6C85.1418 52.6 87.1152 47.6762 87.5636 45.2143V19.7L82.1818 15H99L94.2909 19.7V52.6C93.6182 55.7333 89.9855 62 80.8364 62C71.6873 62 67.6061 55.7333 66.7091 52.6V19.7L62 15H79.4909Z" fill="white" stroke="black" stroke-width="2"/>
<path fill-rule="evenodd" clip-rule="evenodd" d="M210 63H227.042L221.589 57.5143V43.8H226.361C227.951 48.1429 232.087 58.0629 235.904 63H246.811C243.176 59.5714 235.632 50.9314 234.541 43.8V41.7429C235.677 40.8286 237.949 39 239.313 35.5714C239.767 33.5143 239.995 30.0857 239.995 27.3429C239.995 23.9143 237.949 15.6857 234.541 15H210L214.09 19.1143V57.5143L210 63ZM222.27 23.2286H230.451C231.36 23.4571 233.178 24.8743 233.178 28.7143C233.178 32.5543 231.36 33.9714 230.451 34.2H222.27V23.2286Z" fill="white"/>
<path d="M227.042 63V64H229.447L227.752 62.295L227.042 63ZM210 63L209.198 62.4023L208.007 64H210V63ZM221.589 57.5143H220.589V57.9268L220.88 58.2193L221.589 57.5143ZM221.589 43.8V42.8H220.589V43.8H221.589ZM226.361 43.8L227.3 43.4561L227.059 42.8H226.361V43.8ZM235.904 63L235.113 63.6117L235.413 64H235.904V63ZM246.811 63V64H249.329L247.498 62.2725L246.811 63ZM234.541 43.8H233.541V43.876L233.552 43.9512L234.541 43.8ZM234.541 41.7429L233.914 40.9638L233.541 41.264V41.7429H234.541ZM239.313 35.5714L240.242 35.9409L240.272 35.8659L240.289 35.7871L239.313 35.5714ZM234.541 15L234.738 14.0196L234.641 14H234.541V15ZM210 15V14H207.596L209.291 15.705L210 15ZM214.09 19.1143H215.09V18.7018L214.799 18.4093L214.09 19.1143ZM214.09 57.5143L214.892 58.112L215.09 57.8461V57.5143H214.09ZM230.451 23.2286L230.695 22.2588L230.575 22.2286H230.451V23.2286ZM222.27 23.2286V22.2286H221.27V23.2286H222.27ZM230.451 34.2V35.2H230.575L230.695 35.1698L230.451 34.2ZM222.27 34.2H221.27V35.2H222.27V34.2ZM227.042 62H210V64H227.042V62ZM220.88 58.2193L226.333 63.705L227.752 62.295L222.298 56.8093L220.88 58.2193ZM220.589 43.8V57.5143H222.589V43.8H220.589ZM226.361 42.8H221.589V44.8H226.361V42.8ZM236.695 62.3883C234.857 60.0105 232.906 56.3789 231.203 52.752C229.506 49.1408 228.086 45.6024 227.3 43.4561L225.422 44.1439C226.226 46.3404 227.669 49.9334 229.392 53.6023C231.108 57.2554 233.134 61.0524 235.113 63.6117L236.695 62.3883ZM246.811 62H235.904V64H246.811V62ZM233.552 43.9512C234.134 47.7538 236.405 51.8532 238.907 55.3684C241.426 58.9073 244.265 61.9732 246.125 63.7275L247.498 62.2725C245.722 60.5982 242.971 57.6299 240.537 54.2087C238.085 50.764 236.039 46.9776 235.529 43.6488L233.552 43.9512ZM233.541 41.7429V43.8H235.541V41.7429H233.541ZM238.384 35.2019C237.121 38.378 235.023 40.0711 233.914 40.9638L235.168 42.5219C236.331 41.586 238.778 39.622 240.242 35.9409L238.384 35.2019ZM238.995 27.3429C238.995 30.0605 238.767 33.4041 238.336 35.3557L240.289 35.7871C240.767 33.6244 240.995 30.111 240.995 27.3429H238.995ZM234.344 15.9804C234.837 16.0797 235.413 16.4877 236.023 17.3244C236.619 18.1427 237.155 19.2482 237.606 20.4853C238.512 22.9692 238.995 25.7668 238.995 27.3429H240.995C240.995 25.4903 240.455 22.4594 239.485 19.8004C238.999 18.4661 238.386 17.1716 237.639 16.147C236.907 15.1409 235.949 14.2632 234.738 14.0196L234.344 15.9804ZM210 16H234.541V14H210V16ZM214.799 18.4093L210.709 14.295L209.291 15.705L213.381 19.8193L214.799 18.4093ZM215.09 57.5143V19.1143H213.09V57.5143H215.09ZM210.802 63.5977L214.892 58.112L213.288 56.9165L209.198 62.4023L210.802 63.5977ZM230.451 22.2286H222.27V24.2286H230.451V22.2286ZM234.178 28.7143C234.178 24.5579 232.172 22.6304 230.695 22.2588L230.207 24.1984C230.547 24.2839 232.178 25.1906 232.178 28.7143H234.178ZM230.695 35.1698C232.172 34.7982 234.178 32.8706 234.178 28.7143H232.178C232.178 32.2379 230.547 33.1447 230.207 33.2302L230.695 35.1698ZM222.27 35.2H230.451V33.2H222.27V35.2ZM221.27 23.2286V34.2H223.27V23.2286H221.27Z" fill="black"/>
</svg>
